<?xml version="1.0" encoding="utf-8"?>
<!-- Generator: Adobe Illustrator 24.3.0, SVG Export Plug-In . SVG Version: 6.00 Build 0)  -->
<svg version="1.1" id="Layer_1" xmlns="http://www.w3.org/2000/svg" xmlns:xlink="http://www.w3.org/1999/xlink" x="0px" y="0px"
	 viewBox="0 0 160 160" style="enable-background:new 0 0 160 160;" xml:space="preserve">
<style type="text/css">
	.st0{fill:none;stroke:#38A4DD;stroke-width:16;stroke-miterlimit:10;}
	.st1{fill:#38A4DD;}
	.st2{enable-background:new    ;}
	.st3{fill:#39A3DC;}
</style>
<g>
	<g>
		<path class="st0" d="M23.3,94.9"/>
		<g>
			<path class="st1" d="M0.5,90.1c1.7-1.4,3.5-2.8,5.4-4.1s3.7-2.6,5.5-3.8c1.9-1.2,3.7-2.4,5.7-3.6c1-0.6,1.9-1.2,2.9-1.7l2.9-1.7
				l0.9-0.5l0.9,0.5l2.8,1.6c0.9,0.6,1.9,1.1,2.8,1.7c1.9,1.1,3.7,2.3,5.5,3.5c1.8,1.2,3.6,2.4,5.4,3.7c1.8,1.3,3.5,2.6,5.2,4
				c-2.1-0.7-4.1-1.6-6.1-2.5c-2-0.9-4-1.8-5.9-2.8c-1.9-1-3.9-2-5.8-3c-1-0.5-1.9-1-2.9-1.6l-2.8-1.6h1.8l-2.9,1.6
				c-1,0.5-1.9,1.1-2.9,1.6c-2,1.1-3.9,2.1-5.9,3.1c-2,1-4,1.9-6.1,2.9C4.7,88.5,2.6,89.4,0.5,90.1z"/>
			<path class="st1" d="M38,86c1.4-1.6,2.8-3.3,4.3-4.9c0.2-0.2,0.4-0.4,0.5-0.6l0.5-0.6l0.5-0.6l0.4-0.6l0.4-0.6
				c0.1-0.2,0.3-0.5,0.4-0.7l0.4-0.7l0.3-0.7c0.1-0.2,0.2-0.5,0.3-0.7l0.2-0.7c0.2-0.5,0.2-1,0.3-1.5c0.1-0.2,0.1-0.5,0.1-0.7
				l0.1-0.7c0-0.3,0-0.5,0-0.7c0-0.3,0-0.5,0-0.7c-0.2-2-0.9-3.9-1.9-5.6c-0.3-0.4-0.5-0.8-0.9-1.2c-0.2-0.2-0.3-0.4-0.5-0.6
				l-0.5-0.5c-0.1-0.1-0.2-0.2-0.3-0.3l-0.3-0.2l-0.6-0.5l-0.6-0.4c-0.2-0.1-0.4-0.3-0.6-0.4L40,59.9c-0.2-0.1-0.4-0.2-0.6-0.3
				c-0.2-0.1-0.4-0.2-0.7-0.3L38,59.1c-0.2-0.1-0.5-0.1-0.7-0.2c-0.2-0.1-0.5-0.1-0.7-0.2l-0.7-0.1l-0.4-0.1c-0.1,0-0.2,0-0.4,0
				c-1.9-0.1-3.8,0.2-5.5,0.9c-1.7,0.8-3.3,1.9-4.7,3.3l-1.2,1.2l-1.3-1.2l-0.8-0.7l-0.4-0.4c-0.1-0.1-0.3-0.2-0.4-0.3l-0.8-0.6
				l-0.9-0.5c-0.1-0.1-0.3-0.2-0.4-0.3l-0.4-0.2l-0.4-0.2l-0.2-0.1l-0.2-0.1l-0.9-0.3l-0.9-0.2c-1.3-0.2-2.6-0.3-3.8-0.1
				C10.5,59,9.2,59.4,8.1,60c-2.3,1.2-4.3,3.2-5.5,5.5c-1.2,2.3-1.6,5.1-1.1,7.7l0.1,0.5c0,0.2,0.1,0.3,0.1,0.5
				c0.1,0.3,0.2,0.6,0.3,1L2.5,76c0,0.1,0.1,0.2,0.1,0.2l0.1,0.2L3,76.9c0.3,0.6,0.8,1.1,1.1,1.7c0.2,0.3,0.4,0.5,0.7,0.8
				C5,79.7,5.3,80,5.5,80.3l3.1,3.3l3.1,3.3c2,2.2,4,4.4,6.1,6.7l3,3.4c1,1.1,2,2.3,3,3.4c-1.2-1-2.3-2-3.4-3l-3.4-3
				c-2.2-2-4.5-4-6.7-6.1L7,85.2l-3.3-3.1c-0.3-0.2-0.5-0.5-0.8-0.8C2.6,81,2.3,80.7,2,80.4l-0.8-1c-0.3-0.3-0.5-0.7-0.7-1l-0.3-0.5
				l-0.2-0.3C0,77.6,0,77.5-0.1,77.4l-0.6-1.1c-0.2-0.4-0.3-0.8-0.5-1.2c-0.2-0.4-0.3-0.8-0.4-1.2c-0.4-1.6-0.6-3.3-0.4-5
				c0.2-1.7,0.7-3.3,1.4-4.8C1,61,3.4,58.5,6.4,56.9c1.5-0.8,3.1-1.4,4.8-1.6c1.7-0.3,3.4-0.2,5.1,0.1l1.2,0.3l1.2,0.4l0.3,0.1
				l0.3,0.1l0.6,0.3l0.6,0.3c0.2,0.1,0.4,0.2,0.5,0.3l1.1,0.7l1,0.8c0.2,0.1,0.3,0.3,0.5,0.4l0.4,0.4l0.9,0.8h-2.5
				c1.7-1.6,3.7-3.1,5.9-4c2.3-0.9,4.8-1.2,7.2-1c2.4,0.3,4.7,1.2,6.7,2.6c0.3,0.2,0.5,0.3,0.7,0.5l0.7,0.6l0.6,0.6l0.3,0.3
				c0.1,0.1,0.2,0.2,0.3,0.3l0.6,0.7c0.2,0.2,0.4,0.5,0.5,0.7c0.4,0.5,0.7,1,1,1.5c0.2,0.3,0.3,0.5,0.4,0.8c0.1,0.3,0.3,0.5,0.4,0.8
				l0.3,0.8l0.2,0.4l0.1,0.4l0.2,0.9c0.1,0.3,0.1,0.6,0.1,0.9c0.1,0.6,0.1,1.2,0.1,1.8c0.1,2.3-0.6,4.7-1.7,6.7l-0.4,0.8L46.2,78
				c-0.2,0.2-0.3,0.5-0.5,0.7l-0.5,0.6L44.7,80l-0.6,0.6l-0.6,0.6c-0.2,0.2-0.4,0.4-0.6,0.5C41.3,83.1,39.7,84.5,38,86z"/>
		</g>
		<rect x="21.7" y="82.2" class="st1" width="3.5" height="12.5"/>
		<rect x="17.1" y="86.7" class="st1" width="12.5" height="3.5"/>
		<g>
			<g>
				<path class="st1" d="M23.6,69.6c0,0,9.7-0.9,9.7,9.7c0,0,2.6-10.3-3.1-16l-0.2,4.3L23.6,69.6z"/>
				<circle class="st1" cx="27.5" cy="66.1" r="1.8"/>
			</g>
			<g>
				<path class="st1" d="M29.6,66.1c0,0,8.9,4,3.8,13.2c0,0,7.3-7.7,5-15.5l-2.3,3.7L29.6,66.1z"/>
				<circle class="st1" cx="34.7" cy="64.9" r="1.8"/>
			</g>
			<g>
				<path class="st1" d="M35.6,65.8c0,0,6.4,7.4-2.2,13.6c0,0,9.9-3.8,11.2-11.8l-3.6,2.4L35.6,65.8z"/>
				<circle class="st1" cx="40.7" cy="66.8" r="1.8"/>
			</g>
		</g>
	</g>
	<g>
		<g class="st2">
			<path class="st3" d="M65.3,73l2.2,0.6c-0.5,1.8-1.3,3.2-2.5,4.2c-1.2,1-2.7,1.4-4.4,1.4c-1.8,0-3.3-0.4-4.4-1.1
				c-1.1-0.7-2-1.8-2.6-3.2c-0.6-1.4-0.9-2.9-0.9-4.5c0-1.8,0.3-3.3,1-4.6c0.7-1.3,1.6-2.3,2.9-3c1.2-0.7,2.6-1,4.1-1
				c1.7,0,3.1,0.4,4.2,1.3c1.1,0.9,1.9,2.1,2.4,3.6l-2.2,0.5c-0.4-1.2-1-2.1-1.7-2.7c-0.7-0.6-1.7-0.8-2.8-0.8
				c-1.3,0-2.4,0.3-3.2,0.9c-0.9,0.6-1.5,1.5-1.8,2.5S55,69.2,55,70.4c0,1.4,0.2,2.7,0.6,3.7c0.4,1.1,1.1,1.9,1.9,2.4
				s1.8,0.8,2.9,0.8c1.2,0,2.3-0.4,3.2-1.1C64.4,75.5,65,74.4,65.3,73z"/>
			<path class="st3" d="M78,77.4c-0.8,0.7-1.5,1.1-2.2,1.4c-0.7,0.3-1.5,0.4-2.3,0.4c-1.3,0-2.4-0.3-3.1-1c-0.7-0.7-1.1-1.5-1.1-2.5
				c0-0.6,0.1-1.1,0.4-1.6c0.3-0.5,0.6-0.9,1.1-1.2s0.9-0.5,1.5-0.7c0.4-0.1,1-0.2,1.8-0.3c1.7-0.2,2.9-0.4,3.7-0.7
				c0-0.3,0-0.5,0-0.5c0-0.8-0.2-1.4-0.6-1.8c-0.5-0.5-1.3-0.7-2.4-0.7c-1,0-1.7,0.2-2.2,0.5c-0.5,0.3-0.8,0.9-1,1.8l-2-0.3
				c0.2-0.9,0.5-1.6,0.9-2.1c0.4-0.5,1-0.9,1.8-1.2c0.8-0.3,1.7-0.4,2.8-0.4c1,0,1.9,0.1,2.5,0.4s1.1,0.6,1.4,0.9s0.5,0.8,0.6,1.4
				c0.1,0.4,0.1,1,0.1,1.9v2.8c0,1.9,0,3.1,0.1,3.6c0.1,0.5,0.3,1,0.5,1.5h-2.2C78.2,78.5,78.1,78,78,77.4z M77.8,72.8
				c-0.8,0.3-1.9,0.6-3.4,0.8c-0.8,0.1-1.5,0.3-1.8,0.4s-0.6,0.4-0.8,0.7c-0.2,0.3-0.3,0.6-0.3,1c0,0.6,0.2,1,0.6,1.4
				c0.4,0.4,1,0.6,1.8,0.6c0.8,0,1.5-0.2,2.1-0.5c0.6-0.3,1.1-0.8,1.4-1.4c0.2-0.5,0.3-1.2,0.3-2.1V72.8z"/>
			<path class="st3" d="M83.1,78.9V66.7h1.9v1.8c0.5-0.9,0.9-1.4,1.3-1.7c0.4-0.3,0.8-0.4,1.3-0.4c0.7,0,1.4,0.2,2.1,0.7L89,69
				c-0.5-0.3-1-0.4-1.5-0.4c-0.5,0-0.9,0.1-1.2,0.4c-0.4,0.3-0.6,0.6-0.8,1.1c-0.2,0.7-0.3,1.5-0.3,2.4v6.4H83.1z"/>
			<path class="st3" d="M99.3,75l2.1,0.3c-0.3,1.2-1,2.2-1.9,2.9c-0.9,0.7-2.1,1-3.5,1c-1.8,0-3.2-0.5-4.2-1.6s-1.6-2.6-1.6-4.6
				c0-2.1,0.5-3.6,1.6-4.8c1.1-1.1,2.4-1.7,4.1-1.7c1.6,0,3,0.6,4,1.7c1,1.1,1.6,2.7,1.6,4.7c0,0.1,0,0.3,0,0.6h-9.1
				c0.1,1.3,0.5,2.4,1.1,3.1c0.7,0.7,1.5,1.1,2.5,1.1c0.8,0,1.4-0.2,1.9-0.6C98.6,76.5,99,75.9,99.3,75z M92.5,71.6h6.8
				c-0.1-1-0.4-1.8-0.8-2.3c-0.7-0.8-1.5-1.2-2.6-1.2c-0.9,0-1.7,0.3-2.4,1C92.9,69.7,92.6,70.6,92.5,71.6z"/>
			<path class="st3" d="M116.3,73l2.2,0.6c-0.5,1.8-1.3,3.2-2.5,4.2c-1.2,1-2.7,1.4-4.5,1.4c-1.8,0-3.3-0.4-4.4-1.1
				c-1.1-0.7-2-1.8-2.6-3.2c-0.6-1.4-0.9-2.9-0.9-4.5c0-1.8,0.3-3.3,1-4.6c0.7-1.3,1.6-2.3,2.9-3c1.2-0.7,2.6-1,4.1-1
				c1.7,0,3.1,0.4,4.2,1.3s1.9,2.1,2.4,3.6l-2.2,0.5c-0.4-1.2-1-2.1-1.7-2.7c-0.7-0.6-1.7-0.8-2.8-0.8c-1.3,0-2.4,0.3-3.2,0.9
				c-0.9,0.6-1.5,1.5-1.8,2.5c-0.4,1-0.5,2.1-0.5,3.2c0,1.4,0.2,2.7,0.6,3.7c0.4,1.1,1.1,1.9,1.9,2.4c0.9,0.5,1.8,0.8,2.9,0.8
				c1.2,0,2.3-0.4,3.2-1.1C115.4,75.5,116,74.4,116.3,73z"/>
			<path class="st3" d="M129,77.4c-0.8,0.7-1.5,1.1-2.2,1.4c-0.7,0.3-1.5,0.4-2.3,0.4c-1.3,0-2.4-0.3-3.1-1
				c-0.7-0.7-1.1-1.5-1.1-2.5c0-0.6,0.1-1.1,0.4-1.6c0.3-0.5,0.6-0.9,1.1-1.2s0.9-0.5,1.5-0.7c0.4-0.1,1-0.2,1.8-0.3
				c1.7-0.2,2.9-0.4,3.7-0.7c0-0.3,0-0.5,0-0.5c0-0.8-0.2-1.4-0.6-1.8c-0.5-0.5-1.3-0.7-2.4-0.7c-1,0-1.7,0.2-2.2,0.5
				c-0.5,0.3-0.8,0.9-1,1.8l-2-0.3c0.2-0.9,0.5-1.6,0.9-2.1c0.4-0.5,1-0.9,1.8-1.2c0.8-0.3,1.7-0.4,2.8-0.4c1,0,1.9,0.1,2.5,0.4
				c0.7,0.2,1.1,0.6,1.4,0.9c0.3,0.4,0.5,0.8,0.6,1.4c0.1,0.4,0.1,1,0.1,1.9v2.8c0,1.9,0,3.1,0.1,3.6s0.3,1,0.5,1.5h-2.2
				C129.2,78.5,129,78,129,77.4z M128.8,72.8c-0.8,0.3-1.9,0.6-3.4,0.8c-0.8,0.1-1.5,0.3-1.8,0.4c-0.4,0.2-0.6,0.4-0.8,0.7
				c-0.2,0.3-0.3,0.6-0.3,1c0,0.6,0.2,1,0.6,1.4s1,0.6,1.8,0.6c0.8,0,1.5-0.2,2.1-0.5c0.6-0.3,1.1-0.8,1.4-1.4
				c0.2-0.5,0.3-1.2,0.3-2.1V72.8z"/>
			<path class="st3" d="M134.1,78.9V66.7h1.8v1.7c0.4-0.6,0.9-1.1,1.5-1.4c0.6-0.4,1.4-0.5,2.2-0.5c0.9,0,1.6,0.2,2.2,0.6
				c0.6,0.4,1,0.9,1.2,1.6c1-1.4,2.2-2.1,3.8-2.1c1.2,0,2.1,0.3,2.8,1c0.7,0.7,1,1.7,1,3.1v8.4h-2.1v-7.7c0-0.8-0.1-1.4-0.2-1.8
				c-0.1-0.4-0.4-0.7-0.7-0.9c-0.4-0.2-0.8-0.3-1.2-0.3c-0.9,0-1.6,0.3-2.1,0.9c-0.6,0.6-0.8,1.5-0.8,2.7v7.1h-2.1V71
				c0-0.9-0.2-1.6-0.5-2.1c-0.3-0.5-0.9-0.7-1.7-0.7c-0.6,0-1.1,0.2-1.6,0.5c-0.5,0.3-0.9,0.8-1.1,1.3c-0.2,0.6-0.3,1.4-0.3,2.5v6.3
				H134.1z"/>
			<path class="st3" d="M153.7,83.6V66.7h1.9v1.6c0.4-0.6,0.9-1.1,1.5-1.4c0.6-0.3,1.2-0.5,2-0.5c1,0,2,0.3,2.8,0.8
				c0.8,0.5,1.4,1.3,1.8,2.3c0.4,1,0.6,2,0.6,3.2c0,1.2-0.2,2.4-0.7,3.4c-0.4,1-1.1,1.8-2,2.3s-1.8,0.8-2.7,0.8
				c-0.7,0-1.3-0.1-1.9-0.4c-0.5-0.3-1-0.7-1.3-1.1v5.9H153.7z M155.5,72.9c0,1.6,0.3,2.7,1,3.5c0.6,0.8,1.4,1.1,2.3,1.1
				c0.9,0,1.7-0.4,2.4-1.2c0.7-0.8,1-2,1-3.6c0-1.6-0.3-2.7-1-3.5c-0.6-0.8-1.4-1.2-2.3-1.2c-0.9,0-1.7,0.4-2.3,1.2
				C155.9,70.1,155.5,71.3,155.5,72.9z"/>
		</g>
		<g class="st2">
			<path class="st3" d="M53.7,85.3c0-0.8,0.4-1.5,1.3-1.9c0.9-0.5,2-0.7,3.4-0.7c0.9,0,1.7,0.1,2.5,0.3c0.7,0.2,1.3,0.5,1.7,0.9
				c0.4,0.4,0.6,0.8,0.6,1.3c0,0.5-0.2,0.9-0.6,1.3c-0.4,0.4-1,0.7-1.7,0.9c-0.7,0.2-1.5,0.3-2.4,0.3c-0.9,0-1.8-0.1-2.5-0.3
				s-1.3-0.5-1.7-0.9C53.9,86.1,53.7,85.7,53.7,85.3z M55.1,85.3c0,0.6,0.3,1.1,1,1.4c0.6,0.3,1.4,0.5,2.4,0.5c1,0,1.8-0.2,2.4-0.5
				c0.6-0.3,1-0.8,1-1.5c0-0.4-0.1-0.8-0.4-1s-0.7-0.5-1.2-0.7c-0.5-0.2-1.1-0.2-1.8-0.2c-0.9,0-1.7,0.2-2.4,0.5
				C55.4,84,55.1,84.6,55.1,85.3z"/>
			<path class="st3" d="M70.9,87.7v-3.6H72v0.5c0.3-0.3,0.5-0.4,0.8-0.5c0.2-0.1,0.5-0.1,0.8-0.1c0.4,0,0.8,0.1,1.2,0.2l-0.4,0.6
				c-0.3-0.1-0.6-0.1-0.9-0.1c-0.3,0-0.5,0-0.7,0.1c-0.2,0.1-0.4,0.2-0.4,0.3c-0.1,0.2-0.2,0.4-0.2,0.7v1.9H70.9z"/>
			<path class="st3" d="M81.5,88l1.2,0.1c0,0.2,0.2,0.3,0.4,0.4c0.3,0.1,0.7,0.2,1.2,0.2c0.6,0,1-0.1,1.3-0.2s0.5-0.3,0.6-0.5
				c0.1-0.1,0.1-0.4,0.1-0.8c-0.5,0.3-1.2,0.5-2,0.5c-1,0-1.7-0.2-2.3-0.5c-0.5-0.4-0.8-0.8-0.8-1.3c0-0.3,0.1-0.7,0.4-0.9
				c0.2-0.3,0.6-0.5,1.1-0.7c0.5-0.2,1-0.2,1.6-0.2c0.8,0,1.5,0.2,2.1,0.5v-0.4h1.1v3.1c0,0.6-0.1,0.9-0.3,1.2
				c-0.2,0.2-0.6,0.4-1.1,0.5s-1.1,0.2-1.8,0.2c-0.9,0-1.5-0.1-2.1-0.3C81.8,88.7,81.5,88.4,81.5,88z M82.5,85.9
				c0,0.5,0.2,0.8,0.6,1c0.4,0.2,0.8,0.3,1.4,0.3c0.6,0,1-0.1,1.4-0.3s0.6-0.5,0.6-1c0-0.4-0.2-0.8-0.6-1c-0.4-0.2-0.9-0.3-1.4-0.3
				c-0.5,0-1,0.1-1.4,0.3C82.7,85.1,82.5,85.4,82.5,85.9z"/>
			<path class="st3" d="M100.3,87.3c-0.4,0.2-0.9,0.3-1.3,0.4s-0.9,0.1-1.3,0.1c-0.8,0-1.4-0.1-1.8-0.3c-0.4-0.2-0.6-0.4-0.6-0.7
				c0-0.2,0.1-0.3,0.2-0.5s0.4-0.3,0.6-0.3s0.5-0.2,0.9-0.2c0.2,0,0.6-0.1,1.1-0.1c1-0.1,1.7-0.1,2.2-0.2c0-0.1,0-0.1,0-0.2
				c0-0.2-0.1-0.4-0.3-0.5c-0.3-0.1-0.8-0.2-1.4-0.2c-0.6,0-1,0.1-1.3,0.2c-0.3,0.1-0.5,0.3-0.6,0.5l-1.2-0.1
				c0.1-0.3,0.3-0.5,0.5-0.6c0.2-0.2,0.6-0.3,1.1-0.4s1-0.1,1.6-0.1c0.6,0,1.1,0,1.5,0.1s0.7,0.2,0.8,0.3c0.2,0.1,0.3,0.2,0.4,0.4
				c0,0.1,0.1,0.3,0.1,0.6v0.8c0,0.6,0,0.9,0.1,1.1c0.1,0.1,0.2,0.3,0.3,0.4h-1.3C100.4,87.6,100.4,87.4,100.3,87.3z M100.2,85.9
				c-0.4,0.1-1.1,0.2-2,0.2c-0.5,0-0.8,0.1-1.1,0.1c-0.2,0-0.4,0.1-0.5,0.2c-0.1,0.1-0.2,0.2-0.2,0.3c0,0.2,0.1,0.3,0.4,0.4
				c0.2,0.1,0.6,0.2,1.1,0.2c0.5,0,0.9-0.1,1.2-0.2c0.4-0.1,0.6-0.2,0.8-0.4c0.1-0.1,0.2-0.3,0.2-0.6V85.9z"/>
			<path class="st3" d="M109.6,87.7v-3.6h1.1v0.5c0.5-0.4,1.3-0.6,2.3-0.6c0.4,0,0.8,0,1.2,0.1s0.6,0.2,0.8,0.3
				c0.2,0.1,0.3,0.3,0.4,0.4c0,0.1,0.1,0.3,0.1,0.6v2.2h-1.2v-2.2c0-0.2,0-0.4-0.1-0.6s-0.3-0.2-0.5-0.3c-0.2-0.1-0.5-0.1-0.8-0.1
				c-0.5,0-1,0.1-1.3,0.2c-0.4,0.2-0.6,0.5-0.6,0.9v1.9H109.6z"/>
			<path class="st3" d="M123.5,83.5v-0.7h1.2v0.7H123.5z M123.5,87.7v-3.6h1.2v3.6H123.5z"/>
			<path class="st3" d="M132.2,87.7v-0.5l4.5-2.6c-0.5,0-1,0-1.4,0h-2.9v-0.5h5.8v0.4l-3.9,2.3l-0.7,0.4c0.5,0,1,0,1.5,0h3.3v0.5
				H132.2z"/>
			<path class="st3" d="M150.8,86.6l1.2,0.1c-0.2,0.4-0.6,0.6-1.1,0.8c-0.5,0.2-1.2,0.3-2,0.3c-1,0-1.9-0.2-2.5-0.5
				s-0.9-0.8-0.9-1.4c0-0.6,0.3-1.1,0.9-1.4s1.4-0.5,2.4-0.5c1,0,1.7,0.2,2.3,0.5c0.6,0.3,0.9,0.8,0.9,1.4c0,0,0,0.1,0,0.2h-5.3
				c0,0.4,0.3,0.7,0.7,0.9c0.4,0.2,0.9,0.3,1.5,0.3c0.4,0,0.8-0.1,1.1-0.2S150.6,86.8,150.8,86.6z M146.9,85.6h4
				c-0.1-0.3-0.2-0.5-0.5-0.7c-0.4-0.2-0.9-0.3-1.5-0.3c-0.6,0-1,0.1-1.4,0.3C147.1,85,146.9,85.3,146.9,85.6z"/>
			<path class="st3" d="M159.8,87.7v-3.6h1.1v0.5c0.3-0.3,0.5-0.4,0.8-0.5c0.2-0.1,0.5-0.1,0.8-0.1c0.4,0,0.8,0.1,1.2,0.2l-0.4,0.6
				c-0.3-0.1-0.6-0.1-0.9-0.1c-0.3,0-0.5,0-0.7,0.1c-0.2,0.1-0.4,0.2-0.5,0.3c-0.1,0.2-0.2,0.4-0.2,0.7v1.9H159.8z"/>
		</g>
	</g>
</g>
</svg>
